# xmcd CD database file
#
# Track frame offsets:
#	150
#	26889
#	48459
#	67091
#	91871
#	115496
#	133340
#	157888
#	180094
#	204584
#	224118
#
# Disc length: 3103 seconds
#
# Revision: 0
# Processed by: cddbd v1.4PL0 Copyright (c) Steve Scherf et al.
# Submitted via: CDex 1.50Beta6
#
DISCID=a40c1d0b
DTITLE=Ah-Kin - Ring Of Gold
DYEAR=1999
DGENRE=New Age
TTITLE0=Waterfalls
TTITLE1=Shooting Star
TTITLE2=New Fire
TTITLE3=Land Of Copper
TTITLE4=Ring Of Gold
TTITLE5=Full Moon Dance
TTITLE6=Can Cun
TTITLE7=Let's Go Let's Go
TTITLE8=Children Of The Moon
TTITLE9=Caressing Wind
TTITLE10=Rain God
EXTD=YEAR: 1999
EXTT0=
EXTT1=
EXTT2=
EXTT3=
EXTT4=
EXTT5=
EXTT6=
EXTT7=
EXTT8=
EXTT9=
EXTT10=
PLAYORDER=
